<mxfile host="app.diagrams.net" modified="2023-09-08T06:36:10.800Z" agent="Mozilla/5.0 (Macintosh; Intel Mac OS X 10_15_7) AppleWebKit/537.36 (KHTML, like Gecko) Chrome/116.0.0.0 Safari/537.36" etag="zi10F5zeJ9sadJK0kCgG" version="21.7.2" type="device">
  <diagram name="第 1 页" id="C0XK4E6XmfMO0eiTAh1K">
    <mxGraphModel dx="636" dy="390" grid="1" gridSize="10" guides="1" tooltips="1" connect="1" arrows="1" fold="1" page="1" pageScale="1" pageWidth="827" pageHeight="1169" math="0" shadow="0">
      <root>
        <mxCell id="0" />
        <mxCell id="1" parent="0" />
        <mxCell id="1Z9j0tZGZK0EDSh4B03Y-1" value="&lt;b&gt;{Non-updated Paragraph} \n {Triggered News}&lt;/b&gt;" style="rounded=0;whiteSpace=wrap;html=1;" vertex="1" parent="1">
          <mxGeometry x="40" y="310" width="300" height="40" as="geometry" />
        </mxCell>
      </root>
    </mxGraphModel>
  </diagram>
</mxfile>
